<mxfile host="app.diagrams.net" modified="2023-08-23T13:03:28.560Z" agent="Mozilla/5.0 (Windows NT 10.0; Win64; x64) AppleWebKit/537.36 (KHTML, like Gecko) Chrome/116.0.0.0 Safari/537.36" etag="CuSn5Uw-0z8qZvFkIluM" version="21.6.8" type="device">
  <diagram name="Pagina-1" id="UoyJ0l-6ss4mj00balDl">
    <mxGraphModel dx="1562" dy="822" grid="1" gridSize="10" guides="1" tooltips="1" connect="1" arrows="1" fold="1" page="1" pageScale="1" pageWidth="827" pageHeight="1169" math="0" shadow="0">
      <root>
        <mxCell id="0" />
        <mxCell id="1" parent="0" />
        <mxCell id="KK85A-Czj-PDCO1rTAJK-1" value="" style="endArrow=none;dashed=1;html=1;rounded=0;" parent="1" edge="1">
          <mxGeometry width="50" height="50" relative="1" as="geometry">
            <mxPoint x="20" y="710" as="sourcePoint" />
            <mxPoint x="140" y="60" as="targetPoint" />
            <Array as="points">
              <mxPoint x="30" y="110" />
            </Array>
          </mxGeometry>
        </mxCell>
        <mxCell id="KK85A-Czj-PDCO1rTAJK-2" value="" style="endArrow=none;dashed=1;html=1;rounded=0;" parent="1" edge="1">
          <mxGeometry width="50" height="50" relative="1" as="geometry">
            <mxPoint x="20" y="710" as="sourcePoint" />
            <mxPoint x="800" y="60" as="targetPoint" />
            <Array as="points">
              <mxPoint x="800" y="710" />
            </Array>
          </mxGeometry>
        </mxCell>
        <mxCell id="KK85A-Czj-PDCO1rTAJK-3" value="" style="endArrow=none;dashed=1;html=1;rounded=0;" parent="1" edge="1">
          <mxGeometry width="50" height="50" relative="1" as="geometry">
            <mxPoint x="140" y="60" as="sourcePoint" />
            <mxPoint x="800" y="60" as="targetPoint" />
            <Array as="points">
              <mxPoint x="380" y="60" />
            </Array>
          </mxGeometry>
        </mxCell>
        <mxCell id="KK85A-Czj-PDCO1rTAJK-8" value="storage account&lt;br&gt;Blob" style="rounded=1;whiteSpace=wrap;html=1;" parent="1" vertex="1">
          <mxGeometry x="110" y="553.5" width="290" height="115" as="geometry" />
        </mxCell>
        <mxCell id="KK85A-Czj-PDCO1rTAJK-15" value="Notes:&amp;nbsp;&lt;br&gt;MVP v0.1&lt;br&gt;Resource group&lt;br&gt;Storage account met Blob" style="whiteSpace=wrap;html=1;aspect=fixed;align=left;" parent="1" vertex="1">
          <mxGeometry x="80" y="782" width="310" height="310" as="geometry" />
        </mxCell>
        <mxCell id="KK85A-Czj-PDCO1rTAJK-21" value="" style="endArrow=none;dashed=1;html=1;dashPattern=1 3;strokeWidth=2;rounded=0;" parent="1" edge="1">
          <mxGeometry width="50" height="50" relative="1" as="geometry">
            <mxPoint x="80" y="80" as="sourcePoint" />
            <mxPoint x="40" y="40" as="targetPoint" />
          </mxGeometry>
        </mxCell>
        <mxCell id="KK85A-Czj-PDCO1rTAJK-26" value="" style="image;aspect=fixed;html=1;points=[];align=center;fontSize=12;image=img/lib/azure2/storage/Storage_Accounts.svg;" parent="1" vertex="1">
          <mxGeometry x="137.5" y="586.5" width="65" height="52" as="geometry" />
        </mxCell>
        <mxCell id="KK85A-Czj-PDCO1rTAJK-27" value="" style="image;aspect=fixed;html=1;points=[];align=center;fontSize=12;image=img/lib/azure2/general/Blob_Block.svg;" parent="1" vertex="1">
          <mxGeometry x="320" y="585" width="65" height="52" as="geometry" />
        </mxCell>
        <mxCell id="3m5Gk--VPzneLx9NHe0J-91" value="" style="endArrow=none;dashed=1;html=1;rounded=0;" edge="1" parent="1">
          <mxGeometry width="50" height="50" relative="1" as="geometry">
            <mxPoint x="10" y="1850" as="sourcePoint" />
            <mxPoint x="130" y="1200" as="targetPoint" />
            <Array as="points">
              <mxPoint x="20" y="1250" />
            </Array>
          </mxGeometry>
        </mxCell>
        <mxCell id="3m5Gk--VPzneLx9NHe0J-92" value="" style="endArrow=none;dashed=1;html=1;rounded=0;" edge="1" parent="1">
          <mxGeometry width="50" height="50" relative="1" as="geometry">
            <mxPoint x="10" y="1850" as="sourcePoint" />
            <mxPoint x="790" y="1200" as="targetPoint" />
            <Array as="points">
              <mxPoint x="790" y="1850" />
            </Array>
          </mxGeometry>
        </mxCell>
        <mxCell id="3m5Gk--VPzneLx9NHe0J-93" value="" style="endArrow=none;dashed=1;html=1;rounded=0;" edge="1" parent="1">
          <mxGeometry width="50" height="50" relative="1" as="geometry">
            <mxPoint x="130" y="1200" as="sourcePoint" />
            <mxPoint x="790" y="1200" as="targetPoint" />
            <Array as="points">
              <mxPoint x="370" y="1200" />
            </Array>
          </mxGeometry>
        </mxCell>
        <mxCell id="3m5Gk--VPzneLx9NHe0J-94" value="Vnet1" style="rounded=1;whiteSpace=wrap;html=1;fillColor=#FFFFFF;strokeColor=#000000;gradientColor=none;arcSize=1;fontColor=#FFFFFF;" vertex="1" parent="1">
          <mxGeometry x="145" y="1259.1100000000001" width="200" height="400" as="geometry" />
        </mxCell>
        <mxCell id="3m5Gk--VPzneLx9NHe0J-96" value="Vnet2" style="rounded=1;whiteSpace=wrap;html=1;fillColor=#FFFFFF;arcSize=1;fontColor=#FFFFFF;" vertex="1" parent="1">
          <mxGeometry x="510" y="1259.1100000000001" width="200" height="400" as="geometry" />
        </mxCell>
        <mxCell id="3m5Gk--VPzneLx9NHe0J-97" value="" style="edgeStyle=orthogonalEdgeStyle;rounded=0;orthogonalLoop=1;jettySize=auto;html=1;" edge="1" parent="1" source="3m5Gk--VPzneLx9NHe0J-99" target="3m5Gk--VPzneLx9NHe0J-94">
          <mxGeometry relative="1" as="geometry" />
        </mxCell>
        <mxCell id="3m5Gk--VPzneLx9NHe0J-99" value="storage account&lt;br&gt;Blob" style="rounded=1;whiteSpace=wrap;html=1;" vertex="1" parent="1">
          <mxGeometry x="100" y="1693.5" width="290" height="115" as="geometry" />
        </mxCell>
        <mxCell id="3m5Gk--VPzneLx9NHe0J-105" value="Notes:&lt;br&gt;MVP v0.2&lt;br&gt;Resource group&lt;br&gt;Storage Account met Blob&lt;br&gt;2 Vnets" style="whiteSpace=wrap;html=1;aspect=fixed;align=left;" vertex="1" parent="1">
          <mxGeometry x="72" y="1922" width="158" height="158" as="geometry" />
        </mxCell>
        <mxCell id="3m5Gk--VPzneLx9NHe0J-110" value="" style="endArrow=none;dashed=1;html=1;dashPattern=1 3;strokeWidth=2;rounded=0;" edge="1" parent="1">
          <mxGeometry width="50" height="50" relative="1" as="geometry">
            <mxPoint x="70" y="1220" as="sourcePoint" />
            <mxPoint x="30" y="1180" as="targetPoint" />
          </mxGeometry>
        </mxCell>
        <mxCell id="3m5Gk--VPzneLx9NHe0J-114" value="" style="image;aspect=fixed;html=1;points=[];align=center;fontSize=12;image=img/lib/azure2/storage/Storage_Accounts.svg;" vertex="1" parent="1">
          <mxGeometry x="127.5" y="1726.5" width="65" height="52" as="geometry" />
        </mxCell>
        <mxCell id="3m5Gk--VPzneLx9NHe0J-115" value="" style="image;aspect=fixed;html=1;points=[];align=center;fontSize=12;image=img/lib/azure2/general/Blob_Block.svg;" vertex="1" parent="1">
          <mxGeometry x="310" y="1725" width="65" height="52" as="geometry" />
        </mxCell>
        <mxCell id="3m5Gk--VPzneLx9NHe0J-121" value="" style="endArrow=none;dashed=1;html=1;rounded=0;" edge="1" parent="1">
          <mxGeometry width="50" height="50" relative="1" as="geometry">
            <mxPoint x="30" y="3000" as="sourcePoint" />
            <mxPoint x="150" y="2350" as="targetPoint" />
            <Array as="points">
              <mxPoint x="40" y="2400" />
            </Array>
          </mxGeometry>
        </mxCell>
        <mxCell id="3m5Gk--VPzneLx9NHe0J-122" value="" style="endArrow=none;dashed=1;html=1;rounded=0;" edge="1" parent="1">
          <mxGeometry width="50" height="50" relative="1" as="geometry">
            <mxPoint x="30" y="3000" as="sourcePoint" />
            <mxPoint x="810" y="2350" as="targetPoint" />
            <Array as="points">
              <mxPoint x="810" y="3000" />
            </Array>
          </mxGeometry>
        </mxCell>
        <mxCell id="3m5Gk--VPzneLx9NHe0J-123" value="" style="endArrow=none;dashed=1;html=1;rounded=0;" edge="1" parent="1">
          <mxGeometry width="50" height="50" relative="1" as="geometry">
            <mxPoint x="150" y="2350" as="sourcePoint" />
            <mxPoint x="810" y="2350" as="targetPoint" />
            <Array as="points">
              <mxPoint x="390" y="2350" />
            </Array>
          </mxGeometry>
        </mxCell>
        <mxCell id="3m5Gk--VPzneLx9NHe0J-124" value="Vnet1" style="rounded=1;whiteSpace=wrap;html=1;fillColor=#FFFFFF;strokeColor=#000000;gradientColor=none;arcSize=1;fontColor=#FFFFFF;" vertex="1" parent="1">
          <mxGeometry x="165" y="2409.11" width="200" height="400" as="geometry" />
        </mxCell>
        <mxCell id="3m5Gk--VPzneLx9NHe0J-126" value="Vnet2" style="rounded=1;whiteSpace=wrap;html=1;fillColor=#FFFFFF;arcSize=1;fontColor=#FFFFFF;" vertex="1" parent="1">
          <mxGeometry x="530" y="2409.11" width="200" height="400" as="geometry" />
        </mxCell>
        <mxCell id="3m5Gk--VPzneLx9NHe0J-127" value="" style="edgeStyle=orthogonalEdgeStyle;rounded=0;orthogonalLoop=1;jettySize=auto;html=1;" edge="1" parent="1" source="3m5Gk--VPzneLx9NHe0J-129" target="3m5Gk--VPzneLx9NHe0J-124">
          <mxGeometry relative="1" as="geometry" />
        </mxCell>
        <mxCell id="3m5Gk--VPzneLx9NHe0J-129" value="storage account&lt;br&gt;Blob" style="rounded=1;whiteSpace=wrap;html=1;" vertex="1" parent="1">
          <mxGeometry x="120" y="2843.5" width="290" height="115" as="geometry" />
        </mxCell>
        <mxCell id="3m5Gk--VPzneLx9NHe0J-132" value="&lt;br&gt;&lt;br&gt;&lt;br&gt;&lt;br&gt;Webserver&lt;br&gt;vnet-web" style="rounded=1;whiteSpace=wrap;html=1;" vertex="1" parent="1">
          <mxGeometry x="190" y="2430" width="150" height="150" as="geometry" />
        </mxCell>
        <mxCell id="3m5Gk--VPzneLx9NHe0J-134" value="&lt;br&gt;&lt;br&gt;&lt;br&gt;&lt;br&gt;Management&lt;br&gt;vnet-mngt" style="rounded=1;whiteSpace=wrap;html=1;" vertex="1" parent="1">
          <mxGeometry x="555" y="2640" width="150" height="150" as="geometry" />
        </mxCell>
        <mxCell id="3m5Gk--VPzneLx9NHe0J-135" value="Notes:&lt;br style=&quot;border-color: var(--border-color);&quot;&gt;MVP v0.3&lt;br style=&quot;border-color: var(--border-color);&quot;&gt;Resource group&lt;br style=&quot;border-color: var(--border-color);&quot;&gt;Storage Account met Blob&lt;br style=&quot;border-color: var(--border-color);&quot;&gt;2 Vnets&lt;br&gt;2 Subnets&lt;br&gt;2 VMs, elk in een ander subnet en availability zone" style="whiteSpace=wrap;html=1;aspect=fixed;align=left;" vertex="1" parent="1">
          <mxGeometry x="91" y="3072" width="310" height="310" as="geometry" />
        </mxCell>
        <mxCell id="3m5Gk--VPzneLx9NHe0J-136" value="" style="image;aspect=fixed;html=1;points=[];align=center;fontSize=12;image=img/lib/azure2/compute/Virtual_Machine.svg;" vertex="1" parent="1">
          <mxGeometry x="603.05" y="2660" width="53.91" height="50" as="geometry" />
        </mxCell>
        <mxCell id="3m5Gk--VPzneLx9NHe0J-137" value="Availability Zone 1" style="rounded=1;whiteSpace=wrap;html=1;fillColor=none;strokeColor=#66B2FF;strokeWidth=2;collapsible=1;" vertex="1" collapsed="1" parent="1">
          <mxGeometry x="90" y="2415" width="50" height="40" as="geometry">
            <mxRectangle x="80" y="125" width="700" height="180" as="alternateBounds" />
          </mxGeometry>
        </mxCell>
        <mxCell id="3m5Gk--VPzneLx9NHe0J-138" value="Availability zone 2" style="rounded=1;whiteSpace=wrap;html=1;fillColor=none;strokeColor=#66B2FF;strokeWidth=2;backgroundOutline=0;collapsible=1;" vertex="1" collapsed="1" parent="1">
          <mxGeometry x="90" y="2630" width="50" height="40" as="geometry">
            <mxRectangle x="80" y="340" width="700" height="170" as="alternateBounds" />
          </mxGeometry>
        </mxCell>
        <mxCell id="3m5Gk--VPzneLx9NHe0J-139" value="" style="image;aspect=fixed;html=1;points=[];align=center;fontSize=12;image=img/lib/azure2/compute/Virtual_Machine.svg;" vertex="1" parent="1">
          <mxGeometry x="238.05" y="2450" width="53.91" height="50" as="geometry" />
        </mxCell>
        <mxCell id="3m5Gk--VPzneLx9NHe0J-140" value="" style="endArrow=none;dashed=1;html=1;dashPattern=1 3;strokeWidth=2;rounded=0;" edge="1" parent="1">
          <mxGeometry width="50" height="50" relative="1" as="geometry">
            <mxPoint x="90" y="2370" as="sourcePoint" />
            <mxPoint x="50" y="2330" as="targetPoint" />
          </mxGeometry>
        </mxCell>
        <mxCell id="3m5Gk--VPzneLx9NHe0J-144" value="" style="image;aspect=fixed;html=1;points=[];align=center;fontSize=12;image=img/lib/azure2/storage/Storage_Accounts.svg;" vertex="1" parent="1">
          <mxGeometry x="147.5" y="2876.5" width="65" height="52" as="geometry" />
        </mxCell>
        <mxCell id="3m5Gk--VPzneLx9NHe0J-145" value="" style="image;aspect=fixed;html=1;points=[];align=center;fontSize=12;image=img/lib/azure2/general/Blob_Block.svg;" vertex="1" parent="1">
          <mxGeometry x="330" y="2875" width="65" height="52" as="geometry" />
        </mxCell>
        <mxCell id="3m5Gk--VPzneLx9NHe0J-150" value="Internet" style="text;html=1;align=center;verticalAlign=middle;resizable=0;points=[];autosize=1;strokeColor=none;fillColor=none;" vertex="1" parent="1">
          <mxGeometry x="410" y="2348" width="60" height="30" as="geometry" />
        </mxCell>
        <mxCell id="3m5Gk--VPzneLx9NHe0J-151" value="" style="image;aspect=fixed;html=1;points=[];align=center;fontSize=12;image=img/lib/azure2/general/Resource_Groups.svg;" vertex="1" parent="1">
          <mxGeometry x="10" width="68" height="64" as="geometry" />
        </mxCell>
        <mxCell id="3m5Gk--VPzneLx9NHe0J-152" value="" style="image;aspect=fixed;html=1;points=[];align=center;fontSize=12;image=img/lib/azure2/general/Resource_Groups.svg;" vertex="1" parent="1">
          <mxGeometry y="1164" width="68" height="64" as="geometry" />
        </mxCell>
        <mxCell id="3m5Gk--VPzneLx9NHe0J-153" value="" style="image;aspect=fixed;html=1;points=[];align=center;fontSize=12;image=img/lib/azure2/general/Resource_Groups.svg;" vertex="1" parent="1">
          <mxGeometry y="2290" width="68" height="64" as="geometry" />
        </mxCell>
        <mxCell id="3m5Gk--VPzneLx9NHe0J-154" value="" style="endArrow=none;dashed=1;html=1;rounded=0;" edge="1" parent="1">
          <mxGeometry width="50" height="50" relative="1" as="geometry">
            <mxPoint x="10" y="4200" as="sourcePoint" />
            <mxPoint x="130" y="3550" as="targetPoint" />
            <Array as="points">
              <mxPoint x="20" y="3600" />
            </Array>
          </mxGeometry>
        </mxCell>
        <mxCell id="3m5Gk--VPzneLx9NHe0J-155" value="" style="endArrow=none;dashed=1;html=1;rounded=0;" edge="1" parent="1">
          <mxGeometry width="50" height="50" relative="1" as="geometry">
            <mxPoint x="10" y="4200" as="sourcePoint" />
            <mxPoint x="790" y="3550" as="targetPoint" />
            <Array as="points">
              <mxPoint x="790" y="4200" />
            </Array>
          </mxGeometry>
        </mxCell>
        <mxCell id="3m5Gk--VPzneLx9NHe0J-156" value="" style="endArrow=none;dashed=1;html=1;rounded=0;" edge="1" parent="1">
          <mxGeometry width="50" height="50" relative="1" as="geometry">
            <mxPoint x="130" y="3550" as="sourcePoint" />
            <mxPoint x="790" y="3550" as="targetPoint" />
            <Array as="points">
              <mxPoint x="370" y="3550" />
            </Array>
          </mxGeometry>
        </mxCell>
        <mxCell id="3m5Gk--VPzneLx9NHe0J-157" value="Vnet1" style="rounded=1;whiteSpace=wrap;html=1;fillColor=#FFFFFF;strokeColor=#000000;gradientColor=none;arcSize=1;fontColor=#FFFFFF;" vertex="1" parent="1">
          <mxGeometry x="145" y="3609.11" width="200" height="400" as="geometry" />
        </mxCell>
        <mxCell id="3m5Gk--VPzneLx9NHe0J-158" value="Peering" style="edgeStyle=orthogonalEdgeStyle;rounded=0;orthogonalLoop=1;jettySize=auto;html=1;exitX=0;exitY=0.5;exitDx=0;exitDy=0;entryX=1;entryY=0.5;entryDx=0;entryDy=0;endArrow=classic;endFill=1;startArrow=classic;startFill=1;strokeColor=#000000;" edge="1" parent="1">
          <mxGeometry relative="1" as="geometry">
            <mxPoint x="510" y="3809.51" as="sourcePoint" />
            <mxPoint x="345" y="3809.51" as="targetPoint" />
            <Array as="points">
              <mxPoint x="402.25" y="3809.51" />
              <mxPoint x="402.25" y="3809.51" />
            </Array>
          </mxGeometry>
        </mxCell>
        <mxCell id="3m5Gk--VPzneLx9NHe0J-159" value="Vnet2" style="rounded=1;whiteSpace=wrap;html=1;fillColor=#FFFFFF;arcSize=1;fontColor=#FFFFFF;" vertex="1" parent="1">
          <mxGeometry x="510" y="3609.11" width="200" height="400" as="geometry" />
        </mxCell>
        <mxCell id="3m5Gk--VPzneLx9NHe0J-160" value="" style="edgeStyle=orthogonalEdgeStyle;rounded=0;orthogonalLoop=1;jettySize=auto;html=1;" edge="1" parent="1" source="3m5Gk--VPzneLx9NHe0J-162" target="3m5Gk--VPzneLx9NHe0J-157">
          <mxGeometry relative="1" as="geometry" />
        </mxCell>
        <mxCell id="3m5Gk--VPzneLx9NHe0J-161" style="edgeStyle=orthogonalEdgeStyle;rounded=0;orthogonalLoop=1;jettySize=auto;html=1;entryX=0.5;entryY=1;entryDx=0;entryDy=0;startArrow=classic;startFill=1;" edge="1" parent="1" source="3m5Gk--VPzneLx9NHe0J-162" target="3m5Gk--VPzneLx9NHe0J-159">
          <mxGeometry relative="1" as="geometry" />
        </mxCell>
        <mxCell id="3m5Gk--VPzneLx9NHe0J-162" value="storage account&lt;br&gt;Blob" style="rounded=1;whiteSpace=wrap;html=1;" vertex="1" parent="1">
          <mxGeometry x="100" y="4043.5" width="290" height="115" as="geometry" />
        </mxCell>
        <mxCell id="3m5Gk--VPzneLx9NHe0J-163" value="management connection" style="edgeStyle=orthogonalEdgeStyle;rounded=0;orthogonalLoop=1;jettySize=auto;html=1;startArrow=classic;startFill=1;" edge="1" parent="1" source="3m5Gk--VPzneLx9NHe0J-165" target="3m5Gk--VPzneLx9NHe0J-167">
          <mxGeometry relative="1" as="geometry">
            <Array as="points">
              <mxPoint x="245" y="3910" />
            </Array>
          </mxGeometry>
        </mxCell>
        <mxCell id="3m5Gk--VPzneLx9NHe0J-164" value="" style="edgeStyle=orthogonalEdgeStyle;rounded=0;orthogonalLoop=1;jettySize=auto;html=1;exitX=0.5;exitY=0;exitDx=0;exitDy=0;startArrow=classic;startFill=1;" edge="1" parent="1" source="3m5Gk--VPzneLx9NHe0J-165">
          <mxGeometry relative="1" as="geometry">
            <mxPoint x="420" y="3570" as="targetPoint" />
          </mxGeometry>
        </mxCell>
        <mxCell id="3m5Gk--VPzneLx9NHe0J-165" value="&lt;br&gt;&lt;br&gt;&lt;br&gt;&lt;br&gt;Webserver&lt;br&gt;vnet-web" style="rounded=1;whiteSpace=wrap;html=1;" vertex="1" parent="1">
          <mxGeometry x="170" y="3630" width="150" height="150" as="geometry" />
        </mxCell>
        <mxCell id="3m5Gk--VPzneLx9NHe0J-166" style="edgeStyle=orthogonalEdgeStyle;rounded=0;orthogonalLoop=1;jettySize=auto;html=1;exitX=0.5;exitY=0;exitDx=0;exitDy=0;startArrow=classic;startFill=1;endArrow=none;endFill=0;" edge="1" parent="1" source="3m5Gk--VPzneLx9NHe0J-167" target="3m5Gk--VPzneLx9NHe0J-183">
          <mxGeometry relative="1" as="geometry" />
        </mxCell>
        <mxCell id="3m5Gk--VPzneLx9NHe0J-167" value="&lt;br&gt;&lt;br&gt;&lt;br&gt;&lt;br&gt;Management&lt;br&gt;vnet-mngt" style="rounded=1;whiteSpace=wrap;html=1;" vertex="1" parent="1">
          <mxGeometry x="535" y="3840" width="150" height="150" as="geometry" />
        </mxCell>
        <mxCell id="3m5Gk--VPzneLx9NHe0J-168" value="Notes:&lt;br&gt;MVP v0.4&lt;br&gt;resource group&lt;br&gt;storage account met blob&lt;br&gt;2 vnets&lt;br&gt;2 subnets, 1 per Vnet&lt;br&gt;Subnet1 10.20.20.0/24&amp;nbsp;&lt;br&gt;Subnet2 10.10.10.0/24&amp;nbsp;&lt;br&gt;Webserver IPs:&lt;br&gt;Public: x.x.x.x&amp;nbsp;&lt;br&gt;Private: 10.20.20.1&lt;br&gt;Management server IP:&lt;br&gt;Public: x.x.x.x&lt;br&gt;Private: 10.10.10.1&lt;br&gt;&lt;br&gt;Peering tussen Vnets" style="whiteSpace=wrap;html=1;aspect=fixed;align=left;" vertex="1" parent="1">
          <mxGeometry x="78" y="4280" width="310" height="310" as="geometry" />
        </mxCell>
        <mxCell id="3m5Gk--VPzneLx9NHe0J-169" value="" style="image;aspect=fixed;html=1;points=[];align=center;fontSize=12;image=img/lib/azure2/compute/Virtual_Machine.svg;" vertex="1" parent="1">
          <mxGeometry x="583.05" y="3860" width="53.91" height="50" as="geometry" />
        </mxCell>
        <mxCell id="3m5Gk--VPzneLx9NHe0J-170" value="Availability Zone 1" style="rounded=1;whiteSpace=wrap;html=1;fillColor=none;strokeColor=#66B2FF;strokeWidth=2;collapsible=1;" vertex="1" collapsed="1" parent="1">
          <mxGeometry x="70" y="3615" width="50" height="40" as="geometry">
            <mxRectangle x="80" y="125" width="700" height="180" as="alternateBounds" />
          </mxGeometry>
        </mxCell>
        <mxCell id="3m5Gk--VPzneLx9NHe0J-171" value="Availability zone 2" style="rounded=1;whiteSpace=wrap;html=1;fillColor=none;strokeColor=#66B2FF;strokeWidth=2;backgroundOutline=0;collapsible=1;" vertex="1" collapsed="1" parent="1">
          <mxGeometry x="70" y="3830" width="50" height="40" as="geometry">
            <mxRectangle x="80" y="340" width="700" height="170" as="alternateBounds" />
          </mxGeometry>
        </mxCell>
        <mxCell id="3m5Gk--VPzneLx9NHe0J-172" value="" style="image;aspect=fixed;html=1;points=[];align=center;fontSize=12;image=img/lib/azure2/compute/Virtual_Machine.svg;" vertex="1" parent="1">
          <mxGeometry x="218.05" y="3650" width="53.91" height="50" as="geometry" />
        </mxCell>
        <mxCell id="3m5Gk--VPzneLx9NHe0J-173" value="" style="endArrow=none;dashed=1;html=1;dashPattern=1 3;strokeWidth=2;rounded=0;" edge="1" parent="1">
          <mxGeometry width="50" height="50" relative="1" as="geometry">
            <mxPoint x="70" y="3570" as="sourcePoint" />
            <mxPoint x="30" y="3530" as="targetPoint" />
          </mxGeometry>
        </mxCell>
        <mxCell id="3m5Gk--VPzneLx9NHe0J-175" value="" style="image;aspect=fixed;html=1;points=[];align=center;fontSize=12;image=img/lib/azure2/networking/Virtual_Networks.svg;" vertex="1" parent="1">
          <mxGeometry x="310" y="3800.9" width="30.5" height="18.21" as="geometry" />
        </mxCell>
        <mxCell id="3m5Gk--VPzneLx9NHe0J-176" value="" style="image;aspect=fixed;html=1;points=[];align=center;fontSize=12;image=img/lib/azure2/networking/Virtual_Networks.svg;" vertex="1" parent="1">
          <mxGeometry x="520" y="3800.01" width="30.5" height="18.21" as="geometry" />
        </mxCell>
        <mxCell id="3m5Gk--VPzneLx9NHe0J-177" value="" style="image;aspect=fixed;html=1;points=[];align=center;fontSize=12;image=img/lib/azure2/storage/Storage_Accounts.svg;" vertex="1" parent="1">
          <mxGeometry x="127.5" y="4076.5" width="65" height="52" as="geometry" />
        </mxCell>
        <mxCell id="3m5Gk--VPzneLx9NHe0J-178" value="" style="image;aspect=fixed;html=1;points=[];align=center;fontSize=12;image=img/lib/azure2/general/Blob_Block.svg;" vertex="1" parent="1">
          <mxGeometry x="310" y="4075" width="65" height="52" as="geometry" />
        </mxCell>
        <mxCell id="3m5Gk--VPzneLx9NHe0J-179" value="" style="image;aspect=fixed;html=1;points=[];align=center;fontSize=12;image=img/lib/azure2/security/Key_Vaults.svg;" vertex="1" parent="1">
          <mxGeometry x="719" y="4053" width="51" height="51" as="geometry" />
        </mxCell>
        <mxCell id="3m5Gk--VPzneLx9NHe0J-180" value="" style="image;aspect=fixed;html=1;points=[];align=center;fontSize=12;image=img/lib/azure2/networking/Network_Security_Groups.svg;" vertex="1" parent="1">
          <mxGeometry x="170" y="3758" width="31.29" height="38" as="geometry" />
        </mxCell>
        <mxCell id="3m5Gk--VPzneLx9NHe0J-181" value="" style="image;aspect=fixed;html=1;points=[];align=center;fontSize=12;image=img/lib/azure2/networking/Network_Security_Groups.svg;" vertex="1" parent="1">
          <mxGeometry x="660" y="3830" width="31.29" height="38" as="geometry" />
        </mxCell>
        <mxCell id="3m5Gk--VPzneLx9NHe0J-182" value="" style="image;aspect=fixed;html=1;points=[];align=center;fontSize=12;image=img/lib/azure2/storage/Recovery_Services_Vaults.svg;" vertex="1" parent="1">
          <mxGeometry x="622" y="4053" width="49.45" height="43" as="geometry" />
        </mxCell>
        <mxCell id="3m5Gk--VPzneLx9NHe0J-183" value="Internet" style="text;html=1;align=center;verticalAlign=middle;resizable=0;points=[];autosize=1;strokeColor=none;fillColor=none;" vertex="1" parent="1">
          <mxGeometry x="390" y="3548" width="60" height="30" as="geometry" />
        </mxCell>
        <mxCell id="3m5Gk--VPzneLx9NHe0J-184" value="" style="image;aspect=fixed;html=1;points=[];align=center;fontSize=12;image=img/lib/azure2/general/Resource_Groups.svg;" vertex="1" parent="1">
          <mxGeometry x="2" y="3490" width="68" height="64" as="geometry" />
        </mxCell>
        <mxCell id="3m5Gk--VPzneLx9NHe0J-269" value="" style="endArrow=none;dashed=1;html=1;rounded=0;" edge="1" parent="1">
          <mxGeometry width="50" height="50" relative="1" as="geometry">
            <mxPoint x="40" y="5312" as="sourcePoint" />
            <mxPoint x="160" y="4662" as="targetPoint" />
            <Array as="points">
              <mxPoint x="50" y="4712" />
            </Array>
          </mxGeometry>
        </mxCell>
        <mxCell id="3m5Gk--VPzneLx9NHe0J-270" value="" style="endArrow=none;dashed=1;html=1;rounded=0;" edge="1" parent="1">
          <mxGeometry width="50" height="50" relative="1" as="geometry">
            <mxPoint x="40" y="5312" as="sourcePoint" />
            <mxPoint x="820" y="4662" as="targetPoint" />
            <Array as="points">
              <mxPoint x="820" y="5312" />
            </Array>
          </mxGeometry>
        </mxCell>
        <mxCell id="3m5Gk--VPzneLx9NHe0J-271" value="" style="endArrow=none;dashed=1;html=1;rounded=0;" edge="1" parent="1">
          <mxGeometry width="50" height="50" relative="1" as="geometry">
            <mxPoint x="160" y="4662" as="sourcePoint" />
            <mxPoint x="820" y="4662" as="targetPoint" />
            <Array as="points">
              <mxPoint x="400" y="4662" />
            </Array>
          </mxGeometry>
        </mxCell>
        <mxCell id="3m5Gk--VPzneLx9NHe0J-272" value="Vnet1" style="rounded=1;whiteSpace=wrap;html=1;fillColor=#FFFFFF;strokeColor=#000000;gradientColor=none;arcSize=1;fontColor=#FFFFFF;" vertex="1" parent="1">
          <mxGeometry x="175" y="4721.110000000001" width="200" height="400" as="geometry" />
        </mxCell>
        <mxCell id="3m5Gk--VPzneLx9NHe0J-273" value="Peering" style="edgeStyle=orthogonalEdgeStyle;rounded=0;orthogonalLoop=1;jettySize=auto;html=1;exitX=0;exitY=0.5;exitDx=0;exitDy=0;entryX=1;entryY=0.5;entryDx=0;entryDy=0;endArrow=classic;endFill=1;startArrow=classic;startFill=1;strokeColor=#000000;" edge="1" parent="1">
          <mxGeometry relative="1" as="geometry">
            <mxPoint x="540" y="4921.51" as="sourcePoint" />
            <mxPoint x="375" y="4921.51" as="targetPoint" />
            <Array as="points">
              <mxPoint x="432.25" y="4921.51" />
              <mxPoint x="432.25" y="4921.51" />
            </Array>
          </mxGeometry>
        </mxCell>
        <mxCell id="3m5Gk--VPzneLx9NHe0J-274" value="Vnet2" style="rounded=1;whiteSpace=wrap;html=1;fillColor=#FFFFFF;arcSize=1;fontColor=#FFFFFF;" vertex="1" parent="1">
          <mxGeometry x="540" y="4721.110000000001" width="200" height="400" as="geometry" />
        </mxCell>
        <mxCell id="3m5Gk--VPzneLx9NHe0J-275" value="" style="edgeStyle=orthogonalEdgeStyle;rounded=0;orthogonalLoop=1;jettySize=auto;html=1;" edge="1" parent="1" source="3m5Gk--VPzneLx9NHe0J-277" target="3m5Gk--VPzneLx9NHe0J-272">
          <mxGeometry relative="1" as="geometry" />
        </mxCell>
        <mxCell id="3m5Gk--VPzneLx9NHe0J-276" style="edgeStyle=orthogonalEdgeStyle;rounded=0;orthogonalLoop=1;jettySize=auto;html=1;entryX=0.5;entryY=1;entryDx=0;entryDy=0;startArrow=classic;startFill=1;" edge="1" parent="1" source="3m5Gk--VPzneLx9NHe0J-277" target="3m5Gk--VPzneLx9NHe0J-274">
          <mxGeometry relative="1" as="geometry" />
        </mxCell>
        <mxCell id="3m5Gk--VPzneLx9NHe0J-277" value="storage account&lt;br&gt;Blob" style="rounded=1;whiteSpace=wrap;html=1;" vertex="1" parent="1">
          <mxGeometry x="130" y="5155.5" width="290" height="115" as="geometry" />
        </mxCell>
        <mxCell id="3m5Gk--VPzneLx9NHe0J-278" value="management connection" style="edgeStyle=orthogonalEdgeStyle;rounded=0;orthogonalLoop=1;jettySize=auto;html=1;startArrow=classic;startFill=1;" edge="1" parent="1" source="3m5Gk--VPzneLx9NHe0J-280" target="3m5Gk--VPzneLx9NHe0J-282">
          <mxGeometry relative="1" as="geometry">
            <Array as="points">
              <mxPoint x="275" y="5022" />
            </Array>
          </mxGeometry>
        </mxCell>
        <mxCell id="3m5Gk--VPzneLx9NHe0J-279" value="" style="edgeStyle=orthogonalEdgeStyle;rounded=0;orthogonalLoop=1;jettySize=auto;html=1;exitX=0.5;exitY=0;exitDx=0;exitDy=0;startArrow=classic;startFill=1;" edge="1" parent="1" source="3m5Gk--VPzneLx9NHe0J-280">
          <mxGeometry relative="1" as="geometry">
            <mxPoint x="450" y="4682" as="targetPoint" />
          </mxGeometry>
        </mxCell>
        <mxCell id="3m5Gk--VPzneLx9NHe0J-280" value="&lt;br&gt;&lt;br&gt;&lt;br&gt;&lt;br&gt;Webserver&lt;br&gt;vnet-web" style="rounded=1;whiteSpace=wrap;html=1;" vertex="1" parent="1">
          <mxGeometry x="200" y="4742" width="150" height="150" as="geometry" />
        </mxCell>
        <mxCell id="3m5Gk--VPzneLx9NHe0J-281" style="edgeStyle=orthogonalEdgeStyle;rounded=0;orthogonalLoop=1;jettySize=auto;html=1;exitX=0.5;exitY=0;exitDx=0;exitDy=0;startArrow=classic;startFill=1;endArrow=none;endFill=0;" edge="1" parent="1" source="3m5Gk--VPzneLx9NHe0J-282" target="3m5Gk--VPzneLx9NHe0J-297">
          <mxGeometry relative="1" as="geometry" />
        </mxCell>
        <mxCell id="3m5Gk--VPzneLx9NHe0J-282" value="&lt;br&gt;&lt;br&gt;&lt;br&gt;&lt;br&gt;Management&lt;br&gt;vnet-mngt" style="rounded=1;whiteSpace=wrap;html=1;" vertex="1" parent="1">
          <mxGeometry x="565" y="4952" width="150" height="150" as="geometry" />
        </mxCell>
        <mxCell id="3m5Gk--VPzneLx9NHe0J-283" value="Notes:&lt;br&gt;MVP v0.5&lt;br&gt;resource group&lt;br&gt;storage account met blob&lt;br&gt;2 vnets&lt;br&gt;2 subnets, 1 per Vnet&lt;br&gt;Subnet1 10.20.20.0/24&amp;nbsp;&lt;br&gt;Subnet2 10.10.10.0/24&amp;nbsp;&lt;br&gt;Webserver IPs:&lt;br&gt;Public: x.x.x.x&amp;nbsp;&lt;br&gt;Private: 10.20.20.1&lt;br&gt;Management server IP:&lt;br&gt;Public: x.x.x.x&lt;br&gt;Private: 10.10.10.1&lt;br&gt;&lt;br&gt;Peering tussen Vnets&lt;br&gt;NSGs met bijpassende regels" style="whiteSpace=wrap;html=1;aspect=fixed;align=left;" vertex="1" parent="1">
          <mxGeometry x="108" y="5392" width="310" height="310" as="geometry" />
        </mxCell>
        <mxCell id="3m5Gk--VPzneLx9NHe0J-284" value="" style="image;aspect=fixed;html=1;points=[];align=center;fontSize=12;image=img/lib/azure2/compute/Virtual_Machine.svg;" vertex="1" parent="1">
          <mxGeometry x="613.05" y="4972" width="53.91" height="50" as="geometry" />
        </mxCell>
        <mxCell id="3m5Gk--VPzneLx9NHe0J-285" value="Availability Zone 1" style="rounded=1;whiteSpace=wrap;html=1;fillColor=none;strokeColor=#66B2FF;strokeWidth=2;collapsible=1;" vertex="1" collapsed="1" parent="1">
          <mxGeometry x="100" y="4727" width="50" height="40" as="geometry">
            <mxRectangle x="80" y="125" width="700" height="180" as="alternateBounds" />
          </mxGeometry>
        </mxCell>
        <mxCell id="3m5Gk--VPzneLx9NHe0J-286" value="Availability zone 2" style="rounded=1;whiteSpace=wrap;html=1;fillColor=none;strokeColor=#66B2FF;strokeWidth=2;backgroundOutline=0;collapsible=1;" vertex="1" collapsed="1" parent="1">
          <mxGeometry x="100" y="4942" width="50" height="40" as="geometry">
            <mxRectangle x="80" y="340" width="700" height="170" as="alternateBounds" />
          </mxGeometry>
        </mxCell>
        <mxCell id="3m5Gk--VPzneLx9NHe0J-287" value="" style="image;aspect=fixed;html=1;points=[];align=center;fontSize=12;image=img/lib/azure2/compute/Virtual_Machine.svg;" vertex="1" parent="1">
          <mxGeometry x="248.05" y="4762" width="53.91" height="50" as="geometry" />
        </mxCell>
        <mxCell id="3m5Gk--VPzneLx9NHe0J-288" value="" style="endArrow=none;dashed=1;html=1;dashPattern=1 3;strokeWidth=2;rounded=0;" edge="1" parent="1">
          <mxGeometry width="50" height="50" relative="1" as="geometry">
            <mxPoint x="100" y="4682" as="sourcePoint" />
            <mxPoint x="60" y="4642" as="targetPoint" />
          </mxGeometry>
        </mxCell>
        <mxCell id="3m5Gk--VPzneLx9NHe0J-289" value="" style="image;aspect=fixed;html=1;points=[];align=center;fontSize=12;image=img/lib/azure2/networking/Virtual_Networks.svg;" vertex="1" parent="1">
          <mxGeometry x="340" y="4912.9" width="30.5" height="18.21" as="geometry" />
        </mxCell>
        <mxCell id="3m5Gk--VPzneLx9NHe0J-290" value="" style="image;aspect=fixed;html=1;points=[];align=center;fontSize=12;image=img/lib/azure2/networking/Virtual_Networks.svg;" vertex="1" parent="1">
          <mxGeometry x="550" y="4912.01" width="30.5" height="18.21" as="geometry" />
        </mxCell>
        <mxCell id="3m5Gk--VPzneLx9NHe0J-291" value="" style="image;aspect=fixed;html=1;points=[];align=center;fontSize=12;image=img/lib/azure2/storage/Storage_Accounts.svg;" vertex="1" parent="1">
          <mxGeometry x="157.5" y="5188.5" width="65" height="52" as="geometry" />
        </mxCell>
        <mxCell id="3m5Gk--VPzneLx9NHe0J-292" value="" style="image;aspect=fixed;html=1;points=[];align=center;fontSize=12;image=img/lib/azure2/general/Blob_Block.svg;" vertex="1" parent="1">
          <mxGeometry x="340" y="5187" width="65" height="52" as="geometry" />
        </mxCell>
        <mxCell id="3m5Gk--VPzneLx9NHe0J-293" value="" style="image;aspect=fixed;html=1;points=[];align=center;fontSize=12;image=img/lib/azure2/security/Key_Vaults.svg;" vertex="1" parent="1">
          <mxGeometry x="749" y="5165" width="51" height="51" as="geometry" />
        </mxCell>
        <mxCell id="3m5Gk--VPzneLx9NHe0J-294" value="" style="image;aspect=fixed;html=1;points=[];align=center;fontSize=12;image=img/lib/azure2/networking/Network_Security_Groups.svg;" vertex="1" parent="1">
          <mxGeometry x="200" y="4870" width="31.29" height="38" as="geometry" />
        </mxCell>
        <mxCell id="3m5Gk--VPzneLx9NHe0J-295" value="" style="image;aspect=fixed;html=1;points=[];align=center;fontSize=12;image=img/lib/azure2/networking/Network_Security_Groups.svg;" vertex="1" parent="1">
          <mxGeometry x="690" y="4942" width="31.29" height="38" as="geometry" />
        </mxCell>
        <mxCell id="3m5Gk--VPzneLx9NHe0J-296" value="" style="image;aspect=fixed;html=1;points=[];align=center;fontSize=12;image=img/lib/azure2/storage/Recovery_Services_Vaults.svg;" vertex="1" parent="1">
          <mxGeometry x="652" y="5165" width="49.45" height="43" as="geometry" />
        </mxCell>
        <mxCell id="3m5Gk--VPzneLx9NHe0J-297" value="Internet" style="text;html=1;align=center;verticalAlign=middle;resizable=0;points=[];autosize=1;strokeColor=none;fillColor=none;" vertex="1" parent="1">
          <mxGeometry x="420" y="4660" width="60" height="30" as="geometry" />
        </mxCell>
        <mxCell id="3m5Gk--VPzneLx9NHe0J-298" value="" style="image;aspect=fixed;html=1;points=[];align=center;fontSize=12;image=img/lib/azure2/general/Resource_Groups.svg;" vertex="1" parent="1">
          <mxGeometry x="23" y="4610" width="68" height="64" as="geometry" />
        </mxCell>
        <mxCell id="3m5Gk--VPzneLx9NHe0J-299" value="" style="endArrow=none;dashed=1;html=1;rounded=0;" edge="1" parent="1">
          <mxGeometry width="50" height="50" relative="1" as="geometry">
            <mxPoint x="30" y="6482" as="sourcePoint" />
            <mxPoint x="150" y="5832" as="targetPoint" />
            <Array as="points">
              <mxPoint x="40" y="5882" />
            </Array>
          </mxGeometry>
        </mxCell>
        <mxCell id="3m5Gk--VPzneLx9NHe0J-300" value="" style="endArrow=none;dashed=1;html=1;rounded=0;" edge="1" parent="1">
          <mxGeometry width="50" height="50" relative="1" as="geometry">
            <mxPoint x="30" y="6482" as="sourcePoint" />
            <mxPoint x="810" y="5832" as="targetPoint" />
            <Array as="points">
              <mxPoint x="810" y="6482" />
            </Array>
          </mxGeometry>
        </mxCell>
        <mxCell id="3m5Gk--VPzneLx9NHe0J-301" value="" style="endArrow=none;dashed=1;html=1;rounded=0;" edge="1" parent="1">
          <mxGeometry width="50" height="50" relative="1" as="geometry">
            <mxPoint x="150" y="5832" as="sourcePoint" />
            <mxPoint x="810" y="5832" as="targetPoint" />
            <Array as="points">
              <mxPoint x="390" y="5832" />
            </Array>
          </mxGeometry>
        </mxCell>
        <mxCell id="3m5Gk--VPzneLx9NHe0J-302" value="Vnet1" style="rounded=1;whiteSpace=wrap;html=1;fillColor=#FFFFFF;strokeColor=#000000;gradientColor=none;arcSize=1;fontColor=#FFFFFF;" vertex="1" parent="1">
          <mxGeometry x="165" y="5891.110000000001" width="200" height="400" as="geometry" />
        </mxCell>
        <mxCell id="3m5Gk--VPzneLx9NHe0J-303" value="Peering" style="edgeStyle=orthogonalEdgeStyle;rounded=0;orthogonalLoop=1;jettySize=auto;html=1;exitX=0;exitY=0.5;exitDx=0;exitDy=0;entryX=1;entryY=0.5;entryDx=0;entryDy=0;endArrow=classic;endFill=1;startArrow=classic;startFill=1;strokeColor=#000000;" edge="1" parent="1">
          <mxGeometry relative="1" as="geometry">
            <mxPoint x="530" y="6091.51" as="sourcePoint" />
            <mxPoint x="365" y="6091.51" as="targetPoint" />
            <Array as="points">
              <mxPoint x="422.25" y="6091.51" />
              <mxPoint x="422.25" y="6091.51" />
            </Array>
          </mxGeometry>
        </mxCell>
        <mxCell id="3m5Gk--VPzneLx9NHe0J-304" value="Vnet2" style="rounded=1;whiteSpace=wrap;html=1;fillColor=#FFFFFF;arcSize=1;fontColor=#FFFFFF;" vertex="1" parent="1">
          <mxGeometry x="530" y="5891.110000000001" width="200" height="400" as="geometry" />
        </mxCell>
        <mxCell id="3m5Gk--VPzneLx9NHe0J-305" value="" style="edgeStyle=orthogonalEdgeStyle;rounded=0;orthogonalLoop=1;jettySize=auto;html=1;" edge="1" parent="1" source="3m5Gk--VPzneLx9NHe0J-307" target="3m5Gk--VPzneLx9NHe0J-302">
          <mxGeometry relative="1" as="geometry" />
        </mxCell>
        <mxCell id="3m5Gk--VPzneLx9NHe0J-306" style="edgeStyle=orthogonalEdgeStyle;rounded=0;orthogonalLoop=1;jettySize=auto;html=1;entryX=0.5;entryY=1;entryDx=0;entryDy=0;startArrow=classic;startFill=1;" edge="1" parent="1" source="3m5Gk--VPzneLx9NHe0J-307" target="3m5Gk--VPzneLx9NHe0J-304">
          <mxGeometry relative="1" as="geometry" />
        </mxCell>
        <mxCell id="3m5Gk--VPzneLx9NHe0J-307" value="storage account&lt;br&gt;Blob" style="rounded=1;whiteSpace=wrap;html=1;" vertex="1" parent="1">
          <mxGeometry x="120" y="6325.5" width="290" height="115" as="geometry" />
        </mxCell>
        <mxCell id="3m5Gk--VPzneLx9NHe0J-308" value="management connection" style="edgeStyle=orthogonalEdgeStyle;rounded=0;orthogonalLoop=1;jettySize=auto;html=1;startArrow=classic;startFill=1;" edge="1" parent="1" source="3m5Gk--VPzneLx9NHe0J-310" target="3m5Gk--VPzneLx9NHe0J-312">
          <mxGeometry relative="1" as="geometry">
            <Array as="points">
              <mxPoint x="265" y="6192" />
            </Array>
          </mxGeometry>
        </mxCell>
        <mxCell id="3m5Gk--VPzneLx9NHe0J-309" value="" style="edgeStyle=orthogonalEdgeStyle;rounded=0;orthogonalLoop=1;jettySize=auto;html=1;exitX=0.5;exitY=0;exitDx=0;exitDy=0;startArrow=classic;startFill=1;" edge="1" parent="1" source="3m5Gk--VPzneLx9NHe0J-310">
          <mxGeometry relative="1" as="geometry">
            <mxPoint x="440" y="5852" as="targetPoint" />
          </mxGeometry>
        </mxCell>
        <mxCell id="3m5Gk--VPzneLx9NHe0J-310" value="&lt;br&gt;&lt;br&gt;&lt;br&gt;&lt;br&gt;Webserver&lt;br&gt;vnet-web" style="rounded=1;whiteSpace=wrap;html=1;" vertex="1" parent="1">
          <mxGeometry x="190" y="5912" width="150" height="150" as="geometry" />
        </mxCell>
        <mxCell id="3m5Gk--VPzneLx9NHe0J-311" style="edgeStyle=orthogonalEdgeStyle;rounded=0;orthogonalLoop=1;jettySize=auto;html=1;exitX=0.5;exitY=0;exitDx=0;exitDy=0;startArrow=classic;startFill=1;endArrow=none;endFill=0;" edge="1" parent="1" source="3m5Gk--VPzneLx9NHe0J-312" target="3m5Gk--VPzneLx9NHe0J-327">
          <mxGeometry relative="1" as="geometry" />
        </mxCell>
        <mxCell id="3m5Gk--VPzneLx9NHe0J-312" value="&lt;br&gt;&lt;br&gt;&lt;br&gt;&lt;br&gt;Management&lt;br&gt;vnet-mngt" style="rounded=1;whiteSpace=wrap;html=1;" vertex="1" parent="1">
          <mxGeometry x="555" y="6122" width="150" height="150" as="geometry" />
        </mxCell>
        <mxCell id="3m5Gk--VPzneLx9NHe0J-313" value="Notes:&lt;br&gt;MVP v1.0&lt;br&gt;resource group&lt;br&gt;storage account met blob&lt;br&gt;2 vnets&lt;br&gt;2 subnets, 1 per Vnet&lt;br&gt;Subnet1 10.20.20.0/24&amp;nbsp;&lt;br&gt;Subnet2 10.10.10.0/24&amp;nbsp;&lt;br&gt;Webserver IPs:&lt;br&gt;Public: x.x.x.x&amp;nbsp;&lt;br&gt;Private: 10.20.20.1&lt;br&gt;Management server IP:&lt;br&gt;Public: x.x.x.x&lt;br&gt;Private: 10.10.10.1&lt;br&gt;&lt;br&gt;Peering tussen Vnets&lt;br&gt;Key vault&amp;nbsp;&lt;br&gt;Back-up" style="whiteSpace=wrap;html=1;aspect=fixed;align=left;" vertex="1" parent="1">
          <mxGeometry x="98" y="6562" width="310" height="310" as="geometry" />
        </mxCell>
        <mxCell id="3m5Gk--VPzneLx9NHe0J-314" value="" style="image;aspect=fixed;html=1;points=[];align=center;fontSize=12;image=img/lib/azure2/compute/Virtual_Machine.svg;" vertex="1" parent="1">
          <mxGeometry x="603.05" y="6142" width="53.91" height="50" as="geometry" />
        </mxCell>
        <mxCell id="3m5Gk--VPzneLx9NHe0J-315" value="Availability Zone 1" style="rounded=1;whiteSpace=wrap;html=1;fillColor=none;strokeColor=#66B2FF;strokeWidth=2;collapsible=1;" vertex="1" collapsed="1" parent="1">
          <mxGeometry x="90" y="5897" width="50" height="40" as="geometry">
            <mxRectangle x="80" y="125" width="700" height="180" as="alternateBounds" />
          </mxGeometry>
        </mxCell>
        <mxCell id="3m5Gk--VPzneLx9NHe0J-316" value="Availability zone 2" style="rounded=1;whiteSpace=wrap;html=1;fillColor=none;strokeColor=#66B2FF;strokeWidth=2;backgroundOutline=0;collapsible=1;" vertex="1" collapsed="1" parent="1">
          <mxGeometry x="90" y="6112" width="50" height="40" as="geometry">
            <mxRectangle x="80" y="340" width="700" height="170" as="alternateBounds" />
          </mxGeometry>
        </mxCell>
        <mxCell id="3m5Gk--VPzneLx9NHe0J-317" value="" style="image;aspect=fixed;html=1;points=[];align=center;fontSize=12;image=img/lib/azure2/compute/Virtual_Machine.svg;" vertex="1" parent="1">
          <mxGeometry x="238.05" y="5932" width="53.91" height="50" as="geometry" />
        </mxCell>
        <mxCell id="3m5Gk--VPzneLx9NHe0J-318" value="" style="endArrow=none;dashed=1;html=1;dashPattern=1 3;strokeWidth=2;rounded=0;" edge="1" parent="1">
          <mxGeometry width="50" height="50" relative="1" as="geometry">
            <mxPoint x="90" y="5852" as="sourcePoint" />
            <mxPoint x="50" y="5812" as="targetPoint" />
          </mxGeometry>
        </mxCell>
        <mxCell id="3m5Gk--VPzneLx9NHe0J-319" value="" style="image;aspect=fixed;html=1;points=[];align=center;fontSize=12;image=img/lib/azure2/networking/Virtual_Networks.svg;" vertex="1" parent="1">
          <mxGeometry x="330" y="6082.9" width="30.5" height="18.21" as="geometry" />
        </mxCell>
        <mxCell id="3m5Gk--VPzneLx9NHe0J-320" value="" style="image;aspect=fixed;html=1;points=[];align=center;fontSize=12;image=img/lib/azure2/networking/Virtual_Networks.svg;" vertex="1" parent="1">
          <mxGeometry x="540" y="6082.01" width="30.5" height="18.21" as="geometry" />
        </mxCell>
        <mxCell id="3m5Gk--VPzneLx9NHe0J-321" value="" style="image;aspect=fixed;html=1;points=[];align=center;fontSize=12;image=img/lib/azure2/storage/Storage_Accounts.svg;" vertex="1" parent="1">
          <mxGeometry x="147.5" y="6358.5" width="65" height="52" as="geometry" />
        </mxCell>
        <mxCell id="3m5Gk--VPzneLx9NHe0J-322" value="" style="image;aspect=fixed;html=1;points=[];align=center;fontSize=12;image=img/lib/azure2/general/Blob_Block.svg;" vertex="1" parent="1">
          <mxGeometry x="330" y="6357" width="65" height="52" as="geometry" />
        </mxCell>
        <mxCell id="3m5Gk--VPzneLx9NHe0J-323" value="" style="image;aspect=fixed;html=1;points=[];align=center;fontSize=12;image=img/lib/azure2/security/Key_Vaults.svg;" vertex="1" parent="1">
          <mxGeometry x="739" y="6335" width="51" height="51" as="geometry" />
        </mxCell>
        <mxCell id="3m5Gk--VPzneLx9NHe0J-324" value="" style="image;aspect=fixed;html=1;points=[];align=center;fontSize=12;image=img/lib/azure2/networking/Network_Security_Groups.svg;" vertex="1" parent="1">
          <mxGeometry x="190" y="6040" width="31.29" height="38" as="geometry" />
        </mxCell>
        <mxCell id="3m5Gk--VPzneLx9NHe0J-325" value="" style="image;aspect=fixed;html=1;points=[];align=center;fontSize=12;image=img/lib/azure2/networking/Network_Security_Groups.svg;" vertex="1" parent="1">
          <mxGeometry x="680" y="6112" width="31.29" height="38" as="geometry" />
        </mxCell>
        <mxCell id="3m5Gk--VPzneLx9NHe0J-326" value="" style="image;aspect=fixed;html=1;points=[];align=center;fontSize=12;image=img/lib/azure2/storage/Recovery_Services_Vaults.svg;" vertex="1" parent="1">
          <mxGeometry x="642" y="6335" width="49.45" height="43" as="geometry" />
        </mxCell>
        <mxCell id="3m5Gk--VPzneLx9NHe0J-327" value="Internet" style="text;html=1;align=center;verticalAlign=middle;resizable=0;points=[];autosize=1;strokeColor=none;fillColor=none;" vertex="1" parent="1">
          <mxGeometry x="410" y="5830" width="60" height="30" as="geometry" />
        </mxCell>
        <mxCell id="3m5Gk--VPzneLx9NHe0J-328" value="" style="image;aspect=fixed;html=1;points=[];align=center;fontSize=12;image=img/lib/azure2/general/Resource_Groups.svg;" vertex="1" parent="1">
          <mxGeometry x="32" y="5790" width="68" height="64" as="geometry" />
        </mxCell>
      </root>
    </mxGraphModel>
  </diagram>
</mxfile>
